<?xml version="1.0" encoding="UTF-8" standalone="no"?>
<svg
   xmlns:dc="http://purl.org/dc/elements/1.1/"
   xmlns:cc="http://creativecommons.org/ns#"
   xmlns:rdf="http://www.w3.org/1999/02/22-rdf-syntax-ns#"
   xmlns:svg="http://www.w3.org/2000/svg"
   xmlns="http://www.w3.org/2000/svg"
   xmlns:sodipodi="http://sodipodi.sourceforge.net/DTD/sodipodi-0.dtd"
   xmlns:inkscape="http://www.inkscape.org/namespaces/inkscape"
   enable-background="new 0 0 128 128"
   height="128px"
   id="Layer_1"
   version="1.1"
   viewBox="0 0 128 128"
   width="128px"
   xml:space="preserve"
   sodipodi:docname="logo.svg"
   inkscape:version="0.92.5 (2060ec1f9f, 2020-04-08)"
   inkscape:export-filename="/home/demsking/Workspace/projects/fakecouch/logo.png"
   inkscape:export-xdpi="187"
   inkscape:export-ydpi="187"><metadata
     id="metadata9"><rdf:RDF><cc:Work
         rdf:about=""><dc:format>image/svg+xml</dc:format><dc:type
           rdf:resource="http://purl.org/dc/dcmitype/StillImage" /><dc:title></dc:title></cc:Work></rdf:RDF></metadata><defs
     id="defs7" /><sodipodi:namedview
     pagecolor="#ffffff"
     bordercolor="#666666"
     borderopacity="1"
     objecttolerance="10"
     gridtolerance="10"
     guidetolerance="10"
     inkscape:pageopacity="0"
     inkscape:pageshadow="2"
     inkscape:window-width="1500"
     inkscape:window-height="954"
     id="namedview5"
     showgrid="false"
     inkscape:zoom="5.5240479"
     inkscape:cx="53.873862"
     inkscape:cy="64"
     inkscape:window-x="0"
     inkscape:window-y="0"
     inkscape:window-maximized="0"
     inkscape:current-layer="Layer_1" /><path
     d="M104,56c-2.93,0-5.637,0.844-8,2.219V16c0-4.422-3.582-8-8-8H40c-4.418,0-8,3.578-8,8v42.219  C29.637,56.844,26.93,56,24,56c-8.836,0-16,7.164-16,16c0,5.906,3.238,11.008,8,13.781V108c0,6.617,5.383,12,12,12  c2.496,0,4.813-0.766,6.734-2.078C36.148,119.18,37.961,120,40,120h48c2.039,0,3.852-0.82,5.266-2.078  C95.188,119.234,97.504,120,100,120c6.617,0,12-5.383,12-12V85.781c4.762-2.773,8-7.875,8-13.781C120,63.164,112.836,56,104,56z   M32,108c0,2.211-1.789,4-4,4s-4-1.789-4-4V88c2.93,0,5.637-0.844,8-2.219V108z M24,80c-4.41,0-8-3.586-8-8s3.59-8,8-8s8,3.586,8,8  S28.41,80,24,80z M88,112H40V93.773C42.363,95.156,45.074,96,48,96h32c2.926,0,5.637-0.844,8-2.227V112z M80,88H48  c-4.418,0-8-3.578-8-8s3.582-8,8-8h32c4.418,0,8,3.578,8,8S84.418,88,80,88z M88,66.227C85.637,64.844,82.926,64,80,64H48  c-2.926,0-5.637,0.844-8,2.227V16h48V66.227z M104,108c0,2.211-1.789,4-4,4s-4-1.789-4-4V85.781c2.363,1.375,5.07,2.219,8,2.219V108  z M104,80c-4.41,0-8-3.586-8-8s3.59-8,8-8s8,3.586,8,8S108.41,80,104,80z"
     fill="#546E7A"
     id="path2"
     style="fill:#921519;fill-opacity:1" /></svg>